<svg width="24" height="18" viewBox="0 0 24 18" fill="#fff" xmlns="http://www.w3.org/2000/svg" class="h-[18px] w-6 fill-white transition-all group-hover:translate-x-1 group-focus:translate-x-1"><path d="M12.95 17.2174C13.0583 16.1948 13.3725 15.2139 13.8925 14.2748C14.4125 13.3357 15.0625 12.5322 15.8425 11.8643C16.6225 11.1965 17.4458 10.7374 18.3125 10.487L0 10.487L0 7.51304L18.3125 7.51304C17.4458 7.26261 16.6225 6.80348 15.8425 6.13565C15.0625 5.46783 14.4125 4.66435 13.8925 3.72522C13.3725 2.78609 13.0583 1.80522 12.95 0.782608L16.6875 0C16.7742 2.25391 17.4567 4.02783 18.735 5.32174C20.035 6.61565 21.79 7.34609 24 7.51304V10.487C21.79 10.6539 20.035 11.3843 18.735 12.6783C17.4567 13.9722 16.7742 15.7461 16.6875 18L12.95 17.2174Z"></path></svg>